<svg width="94" height="108" viewBox="0 0 94 108" fill="none" xmlns="http://www.w3.org/2000/svg">
<g filter="url(#filter0_d_74_17)">
<mask id="path-1-outside-1_74_17" maskUnits="userSpaceOnUse" x="6" y="6" width="82" height="96" fill="black">
<rect fill="white" x="6" y="6" width="82" height="96"/>
<path d="M18.6154 54H77.8846V90.7115H18.6154V54Z"/>
<path d="M22.1538 25.6923C22.1538 23.7381 23.7381 22.1538 25.6923 22.1538H68.1538C70.1081 22.1538 71.6923 23.7381 71.6923 25.6923V43.3846C71.6923 45.3389 70.1081 46.9231 68.1538 46.9231H25.6923C23.7381 46.9231 22.1538 45.3389 22.1538 43.3846V25.6923Z"/>
<path d="M78.7692 8H15.0769C13.2 8 11.4 8.7456 10.0728 10.0728C8.7456 11.4 8 13.2 8 15.0769V92.9231C8 94.8 8.7456 96.6 10.0728 97.9272C11.4 99.2544 13.2 100 15.0769 100H78.7692C80.6462 100 82.4462 99.2544 83.7734 97.9272C85.1005 96.6 85.8462 94.8 85.8462 92.9231V15.0769C85.8462 13.2 85.1005 11.4 83.7734 10.0728C82.4462 8.7456 80.6462 8 78.7692 8ZM29.2308 85.8462C28.181 85.8462 27.1548 85.5349 26.282 84.9516C25.4091 84.3684 24.7288 83.5395 24.3271 82.5696C23.9254 81.5998 23.8203 80.5326 24.0251 79.503C24.2299 78.4734 24.7354 77.5277 25.4777 76.7854C26.22 76.0431 27.1657 75.5376 28.1953 75.3328C29.2249 75.128 30.2921 75.2331 31.2619 75.6348C32.2318 76.0365 33.0607 76.7168 33.644 77.5897C34.2272 78.4625 34.5385 79.4887 34.5385 80.5385C34.5385 81.9461 33.9793 83.2962 32.9839 84.2916C31.9885 85.287 30.6385 85.8462 29.2308 85.8462ZM29.2308 68.1538C28.181 68.1538 27.1548 67.8426 26.282 67.2593C25.4091 66.6761 24.7288 65.8472 24.3271 64.8773C23.9254 63.9075 23.8203 62.8403 24.0251 61.8107C24.2299 60.7811 24.7354 59.8353 25.4777 59.0931C26.22 58.3508 27.1657 57.8452 28.1953 57.6404C29.2249 57.4356 30.2921 57.5408 31.2619 57.9425C32.2318 58.3442 33.0607 59.0245 33.644 59.8974C34.2272 60.7702 34.5385 61.7964 34.5385 62.8462C34.5385 64.2538 33.9793 65.6039 32.9839 66.5993C31.9885 67.5946 30.6385 68.1538 29.2308 68.1538ZM46.9231 85.8462C45.8733 85.8462 44.8471 85.5349 43.9743 84.9516C43.1014 84.3684 42.4211 83.5395 42.0194 82.5696C41.6177 81.5998 41.5126 80.5326 41.7174 79.503C41.9222 78.4734 42.4277 77.5277 43.17 76.7854C43.9123 76.0431 44.858 75.5376 45.8876 75.3328C46.9172 75.128 47.9844 75.2331 48.9542 75.6348C49.9241 76.0365 50.753 76.7168 51.3363 77.5897C51.9195 78.4625 52.2308 79.4887 52.2308 80.5385C52.2308 81.9461 51.6716 83.2962 50.6762 84.2916C49.6808 85.287 48.3308 85.8462 46.9231 85.8462ZM46.9231 68.1538C45.8733 68.1538 44.8471 67.8426 43.9743 67.2593C43.1014 66.6761 42.4211 65.8472 42.0194 64.8773C41.6177 63.9075 41.5126 62.8403 41.7174 61.8107C41.9222 60.7811 42.4277 59.8353 43.17 59.0931C43.9123 58.3508 44.858 57.8452 45.8876 57.6404C46.9172 57.4356 47.9844 57.5408 48.9542 57.9425C49.9241 58.3442 50.753 59.0245 51.3363 59.8974C51.9195 60.7702 52.2308 61.7964 52.2308 62.8462C52.2308 64.2538 51.6716 65.6039 50.6762 66.5993C49.6808 67.5946 48.3308 68.1538 46.9231 68.1538ZM64.6154 85.8462C63.5656 85.8462 62.5394 85.5349 61.6666 84.9516C60.7937 84.3684 60.1134 83.5395 59.7117 82.5696C59.31 81.5998 59.2049 80.5326 59.4097 79.503C59.6145 78.4734 60.12 77.5277 60.8623 76.7854C61.6046 76.0431 62.5503 75.5376 63.5799 75.3328C64.6095 75.128 65.6767 75.2331 66.6465 75.6348C67.6164 76.0365 68.4454 76.7168 69.0286 77.5897C69.6118 78.4625 69.9231 79.4887 69.9231 80.5385C69.9231 81.9461 69.3639 83.2962 68.3685 84.2916C67.3731 85.287 66.0231 85.8462 64.6154 85.8462ZM64.6154 68.1538C63.5656 68.1538 62.5394 67.8426 61.6666 67.2593C60.7937 66.6761 60.1134 65.8472 59.7117 64.8773C59.31 63.9075 59.2049 62.8403 59.4097 61.8107C59.6145 60.7811 60.12 59.8353 60.8623 59.0931C61.6046 58.3508 62.5503 57.8452 63.5799 57.6404C64.6095 57.4356 65.6767 57.5408 66.6465 57.9425C67.6164 58.3442 68.4454 59.0245 69.0286 59.8974C69.6118 60.7702 69.9231 61.7964 69.9231 62.8462C69.9231 64.2538 69.3639 65.6039 68.3685 66.5993C67.3731 67.5946 66.0231 68.1538 64.6154 68.1538ZM71.6923 43.3846C71.6923 44.3231 71.3195 45.2231 70.6559 45.8867C69.9923 46.5503 69.0923 46.9231 68.1538 46.9231H25.6923C24.7539 46.9231 23.8538 46.5503 23.1902 45.8867C22.5266 45.2231 22.1538 44.3231 22.1538 43.3846V25.6923C22.1538 24.7538 22.5266 23.8538 23.1902 23.1902C23.8538 22.5266 24.7539 22.1538 25.6923 22.1538H68.1538C69.0923 22.1538 69.9923 22.5266 70.6559 23.1902C71.3195 23.8538 71.6923 24.7538 71.6923 25.6923V43.3846Z"/>
<path d="M46.9231 76.7854L53.3882 40.0383C50.7468 44.4826 47.8433 48.0568 44.6778 50.7611C41.5123 53.4445 38.5565 54.7861 35.8102 54.7861C33.8187 54.7861 32.2255 53.9371 31.0305 52.2391C29.8566 50.541 29.2696 48.6438 29.2696 46.5475C29.2696 42.3757 30.4331 38.0048 32.76 33.4348C35.108 28.8647 37.98 25.3324 41.3761 22.8377C44.7721 20.3221 48.3988 19.0643 52.2561 19.0643C52.9899 19.0643 53.7865 19.1271 54.646 19.2529C55.5055 19.3787 56.4174 19.5779 57.3817 19.8504H63.6079L53.08 78.38C53.08 78.38 52.7222 79.6389 52.16 80.22C51.7931 80.5993 50.78 80.68 50.78 80.68C50.78 80.68 48.6872 80.8053 48.02 80.5385C47.3124 80.2554 47.2516 79.9877 46.9231 79.3C46.5759 78.5733 46.9231 76.7854 46.9231 76.7854ZM54.8346 32.6486L56.4384 24.7244C55.6837 24.3261 54.908 24.0326 54.1114 23.8439C53.3148 23.6343 52.4867 23.5295 51.6272 23.5295C49.2583 23.5295 46.8475 24.5148 44.3948 26.4854C41.9421 28.4559 39.9086 31.3279 38.2944 35.1014C36.6802 38.8748 35.8731 42.2919 35.8731 45.3525C35.8731 46.3169 36.0828 47.124 36.502 47.7738C36.9423 48.4237 37.5921 48.7486 38.4516 48.7486C41.5542 48.7486 47.0152 43.382 54.8346 32.6486Z"/>
</mask>
<path d="M18.6154 54H77.8846V90.7115H18.6154V54Z" fill="url(#paint0_linear_74_17)"/>
<path d="M22.1538 25.6923C22.1538 23.7381 23.7381 22.1538 25.6923 22.1538H68.1538C70.1081 22.1538 71.6923 23.7381 71.6923 25.6923V43.3846C71.6923 45.3389 70.1081 46.9231 68.1538 46.9231H25.6923C23.7381 46.9231 22.1538 45.3389 22.1538 43.3846V25.6923Z" fill="url(#paint1_linear_74_17)"/>
<path d="M78.7692 8H15.0769C13.2 8 11.4 8.7456 10.0728 10.0728C8.7456 11.4 8 13.2 8 15.0769V92.9231C8 94.8 8.7456 96.6 10.0728 97.9272C11.4 99.2544 13.2 100 15.0769 100H78.7692C80.6462 100 82.4462 99.2544 83.7734 97.9272C85.1005 96.6 85.8462 94.8 85.8462 92.9231V15.0769C85.8462 13.2 85.1005 11.4 83.7734 10.0728C82.4462 8.7456 80.6462 8 78.7692 8ZM29.2308 85.8462C28.181 85.8462 27.1548 85.5349 26.282 84.9516C25.4091 84.3684 24.7288 83.5395 24.3271 82.5696C23.9254 81.5998 23.8203 80.5326 24.0251 79.503C24.2299 78.4734 24.7354 77.5277 25.4777 76.7854C26.22 76.0431 27.1657 75.5376 28.1953 75.3328C29.2249 75.128 30.2921 75.2331 31.2619 75.6348C32.2318 76.0365 33.0607 76.7168 33.644 77.5897C34.2272 78.4625 34.5385 79.4887 34.5385 80.5385C34.5385 81.9461 33.9793 83.2962 32.9839 84.2916C31.9885 85.287 30.6385 85.8462 29.2308 85.8462ZM29.2308 68.1538C28.181 68.1538 27.1548 67.8426 26.282 67.2593C25.4091 66.6761 24.7288 65.8472 24.3271 64.8773C23.9254 63.9075 23.8203 62.8403 24.0251 61.8107C24.2299 60.7811 24.7354 59.8353 25.4777 59.0931C26.22 58.3508 27.1657 57.8452 28.1953 57.6404C29.2249 57.4356 30.2921 57.5408 31.2619 57.9425C32.2318 58.3442 33.0607 59.0245 33.644 59.8974C34.2272 60.7702 34.5385 61.7964 34.5385 62.8462C34.5385 64.2538 33.9793 65.6039 32.9839 66.5993C31.9885 67.5946 30.6385 68.1538 29.2308 68.1538ZM46.9231 85.8462C45.8733 85.8462 44.8471 85.5349 43.9743 84.9516C43.1014 84.3684 42.4211 83.5395 42.0194 82.5696C41.6177 81.5998 41.5126 80.5326 41.7174 79.503C41.9222 78.4734 42.4277 77.5277 43.17 76.7854C43.9123 76.0431 44.858 75.5376 45.8876 75.3328C46.9172 75.128 47.9844 75.2331 48.9542 75.6348C49.9241 76.0365 50.753 76.7168 51.3363 77.5897C51.9195 78.4625 52.2308 79.4887 52.2308 80.5385C52.2308 81.9461 51.6716 83.2962 50.6762 84.2916C49.6808 85.287 48.3308 85.8462 46.9231 85.8462ZM46.9231 68.1538C45.8733 68.1538 44.8471 67.8426 43.9743 67.2593C43.1014 66.6761 42.4211 65.8472 42.0194 64.8773C41.6177 63.9075 41.5126 62.8403 41.7174 61.8107C41.9222 60.7811 42.4277 59.8353 43.17 59.0931C43.9123 58.3508 44.858 57.8452 45.8876 57.6404C46.9172 57.4356 47.9844 57.5408 48.9542 57.9425C49.9241 58.3442 50.753 59.0245 51.3363 59.8974C51.9195 60.7702 52.2308 61.7964 52.2308 62.8462C52.2308 64.2538 51.6716 65.6039 50.6762 66.5993C49.6808 67.5946 48.3308 68.1538 46.9231 68.1538ZM64.6154 85.8462C63.5656 85.8462 62.5394 85.5349 61.6666 84.9516C60.7937 84.3684 60.1134 83.5395 59.7117 82.5696C59.31 81.5998 59.2049 80.5326 59.4097 79.503C59.6145 78.4734 60.12 77.5277 60.8623 76.7854C61.6046 76.0431 62.5503 75.5376 63.5799 75.3328C64.6095 75.128 65.6767 75.2331 66.6465 75.6348C67.6164 76.0365 68.4454 76.7168 69.0286 77.5897C69.6118 78.4625 69.9231 79.4887 69.9231 80.5385C69.9231 81.9461 69.3639 83.2962 68.3685 84.2916C67.3731 85.287 66.0231 85.8462 64.6154 85.8462ZM64.6154 68.1538C63.5656 68.1538 62.5394 67.8426 61.6666 67.2593C60.7937 66.6761 60.1134 65.8472 59.7117 64.8773C59.31 63.9075 59.2049 62.8403 59.4097 61.8107C59.6145 60.7811 60.12 59.8353 60.8623 59.0931C61.6046 58.3508 62.5503 57.8452 63.5799 57.6404C64.6095 57.4356 65.6767 57.5408 66.6465 57.9425C67.6164 58.3442 68.4454 59.0245 69.0286 59.8974C69.6118 60.7702 69.9231 61.7964 69.9231 62.8462C69.9231 64.2538 69.3639 65.6039 68.3685 66.5993C67.3731 67.5946 66.0231 68.1538 64.6154 68.1538ZM71.6923 43.3846C71.6923 44.3231 71.3195 45.2231 70.6559 45.8867C69.9923 46.5503 69.0923 46.9231 68.1538 46.9231H25.6923C24.7539 46.9231 23.8538 46.5503 23.1902 45.8867C22.5266 45.2231 22.1538 44.3231 22.1538 43.3846V25.6923C22.1538 24.7538 22.5266 23.8538 23.1902 23.1902C23.8538 22.5266 24.7539 22.1538 25.6923 22.1538H68.1538C69.0923 22.1538 69.9923 22.5266 70.6559 23.1902C71.3195 23.8538 71.6923 24.7538 71.6923 25.6923V43.3846Z" fill="#440B67"/>
<path d="M46.9231 76.7854L53.3882 40.0383C50.7468 44.4826 47.8433 48.0568 44.6778 50.7611C41.5123 53.4445 38.5565 54.7861 35.8102 54.7861C33.8187 54.7861 32.2255 53.9371 31.0305 52.2391C29.8566 50.541 29.2696 48.6438 29.2696 46.5475C29.2696 42.3757 30.4331 38.0048 32.76 33.4348C35.108 28.8647 37.98 25.3324 41.3761 22.8377C44.7721 20.3221 48.3988 19.0643 52.2561 19.0643C52.9899 19.0643 53.7865 19.1271 54.646 19.2529C55.5055 19.3787 56.4174 19.5779 57.3817 19.8504H63.6079L53.08 78.38C53.08 78.38 52.7222 79.6389 52.16 80.22C51.7931 80.5993 50.78 80.68 50.78 80.68C50.78 80.68 48.6872 80.8053 48.02 80.5385C47.3124 80.2554 47.2516 79.9877 46.9231 79.3C46.5759 78.5733 46.9231 76.7854 46.9231 76.7854ZM54.8346 32.6486L56.4384 24.7244C55.6837 24.3261 54.908 24.0326 54.1114 23.8439C53.3148 23.6343 52.4867 23.5295 51.6272 23.5295C49.2583 23.5295 46.8475 24.5148 44.3948 26.4854C41.9421 28.4559 39.9086 31.3279 38.2944 35.1014C36.6802 38.8748 35.8731 42.2919 35.8731 45.3525C35.8731 46.3169 36.0828 47.124 36.502 47.7738C36.9423 48.4237 37.5921 48.7486 38.4516 48.7486C41.5542 48.7486 47.0152 43.382 54.8346 32.6486Z" fill="white"/>
<path d="M25.6923 23.1538H68.1538V21.1538H25.6923V23.1538ZM70.6923 25.6923V43.3846H72.6923V25.6923H70.6923ZM68.1538 45.9231H25.6923V47.9231H68.1538V45.9231ZM23.1538 43.3846V25.6923H21.1538V43.3846H23.1538ZM18.6154 54V52H16.6154V54H18.6154ZM77.8846 54H79.8846V52H77.8846V54ZM77.8846 90.7115V92.7115H79.8846V90.7115H77.8846ZM18.6154 90.7115H16.6154V92.7115H18.6154V90.7115ZM25.6923 48.9231C26.7969 48.9231 27.6923 48.0276 27.6923 46.9231C27.6923 45.8185 26.7969 44.9231 25.6923 44.9231V48.9231ZM24.1538 43.3846C24.1538 42.28 23.2584 41.3846 22.1538 41.3846C21.0493 41.3846 20.1538 42.28 20.1538 43.3846H24.1538ZM73.6923 43.3846C73.6923 42.28 72.7969 41.3846 71.6923 41.3846C70.5877 41.3846 69.6923 42.28 69.6923 43.3846H73.6923ZM68.1538 44.9231C67.0493 44.9231 66.1538 45.8185 66.1538 46.9231C66.1538 48.0276 67.0493 48.9231 68.1538 48.9231V44.9231ZM68.1538 20.1538C67.0493 20.1538 66.1538 21.0493 66.1538 22.1538C66.1538 23.2584 67.0493 24.1538 68.1538 24.1538V20.1538ZM69.6923 25.6923C69.6923 26.7969 70.5877 27.6923 71.6923 27.6923C72.7969 27.6923 73.6923 26.7969 73.6923 25.6923H69.6923ZM25.6923 24.1538C26.7969 24.1538 27.6923 23.2584 27.6923 22.1538C27.6923 21.0493 26.7969 20.1538 25.6923 20.1538V24.1538ZM20.1538 25.6923C20.1538 26.7969 21.0493 27.6923 22.1538 27.6923C23.2584 27.6923 24.1538 26.7969 24.1538 25.6923H20.1538ZM78.7692 8V6V8ZM15.0769 8L15.0769 6L15.0769 8ZM8 15.0769H6H8ZM8 92.9231H6H8ZM34.5385 80.5385H36.5385H34.5385ZM29.2308 68.1538L29.2308 66.1538L29.2308 68.1538ZM34.5385 62.8462H36.5385H34.5385ZM46.9231 85.8462V87.8462V85.8462ZM52.2308 80.5385H50.2308H52.2308ZM64.6154 85.8462V87.8462V85.8462ZM69.9231 80.5385H67.9231H69.9231ZM46.9231 76.7854L48.8864 77.1666C48.8886 77.1551 48.8908 77.1435 48.8928 77.1319L46.9231 76.7854ZM53.3882 40.0383L55.3579 40.3848C55.5252 39.4338 54.9891 38.499 54.0837 38.1631C53.1783 37.8273 52.1623 38.1863 51.6689 39.0165L53.3882 40.0383ZM44.6778 50.7611L45.9711 52.2868L45.9769 52.2818L44.6778 50.7611ZM31.0305 52.2391L29.3854 53.3764C29.3886 53.381 29.3917 53.3855 29.3949 53.3901L31.0305 52.2391ZM32.76 33.4348L30.9811 32.5208L30.9778 32.5273L32.76 33.4348ZM41.3761 22.8377L42.5601 24.4496L42.5665 24.4448L41.3761 22.8377ZM57.3817 19.8504L56.8378 21.775C57.0148 21.825 57.1978 21.8504 57.3817 21.8504V19.8504ZM63.6079 19.8504L65.5763 20.2045C65.6812 19.6214 65.5222 19.0219 65.1422 18.5674C64.7622 18.113 64.2003 17.8504 63.6079 17.8504V19.8504ZM53.08 78.38L55.0038 78.9268C55.0218 78.8634 55.0367 78.799 55.0484 78.7341L53.08 78.38ZM54.8346 32.6486L56.4512 33.8263C56.6206 33.5937 56.7378 33.3274 56.7949 33.0454L54.8346 32.6486ZM56.4384 24.7244L58.3986 25.1211C58.5746 24.2515 58.1566 23.3698 57.3719 22.9556L56.4384 24.7244ZM54.1114 23.8439L53.6024 25.7781C53.6184 25.7823 53.6344 25.7863 53.6505 25.7901L54.1114 23.8439ZM36.502 47.7738L34.8214 48.8581C34.8295 48.8707 34.8378 48.8831 34.8462 48.8955L36.502 47.7738ZM48.02 80.5385L48.7628 78.6815L48.7628 78.6815L48.02 80.5385ZM52.16 80.22L50.7226 78.8294L50.7226 78.8294L52.16 80.22ZM46.9231 79.3L45.1185 80.1622L46.9231 79.3ZM50.78 80.68L50.8996 82.6764C50.9127 82.6756 50.9258 82.6747 50.9389 82.6737L50.78 80.68ZM18.6154 56H77.8846V52H18.6154V56ZM75.8846 54V90.7115H79.8846V54H75.8846ZM77.8846 88.7115H18.6154V92.7115H77.8846V88.7115ZM20.6154 90.7115V54H16.6154V90.7115H20.6154ZM25.6923 44.9231C24.8426 44.9231 24.1538 44.2343 24.1538 43.3846H20.1538C20.1538 46.4434 22.6335 48.9231 25.6923 48.9231V44.9231ZM69.6923 43.3846C69.6923 44.2343 69.0035 44.9231 68.1538 44.9231V48.9231C71.2127 48.9231 73.6923 46.4434 73.6923 43.3846H69.6923ZM68.1538 24.1538C69.0035 24.1538 69.6923 24.8426 69.6923 25.6923H73.6923C73.6923 22.6335 71.2127 20.1538 68.1538 20.1538V24.1538ZM25.6923 20.1538C22.6335 20.1538 20.1538 22.6335 20.1538 25.6923H24.1538C24.1538 24.8426 24.8426 24.1538 25.6923 24.1538V20.1538ZM78.7692 6H15.0769V10H78.7692V6ZM15.0769 6C12.6696 6 10.3608 6.95632 8.65857 8.65857L11.487 11.487C12.4391 10.5349 13.7304 10 15.0769 10L15.0769 6ZM8.65857 8.65857C6.95632 10.3608 6 12.6696 6 15.0769L10 15.0769C10 13.7304 10.5349 12.4391 11.487 11.487L8.65857 8.65857ZM6 15.0769V92.9231H10V15.0769H6ZM6 92.9231C6 95.3304 6.95632 97.6392 8.65857 99.3414L11.487 96.513C10.5349 95.5609 10 94.2696 10 92.9231H6ZM8.65857 99.3414C10.3608 101.044 12.6696 102 15.0769 102V98C13.7304 98 12.4391 97.4651 11.487 96.513L8.65857 99.3414ZM15.0769 102H78.7692V98H15.0769V102ZM78.7692 102C81.1766 102 83.4853 101.044 85.1876 99.3414L82.3592 96.513C81.407 97.4651 80.1157 98 78.7692 98V102ZM85.1876 99.3414C86.8898 97.6392 87.8462 95.3304 87.8462 92.9231H83.8462C83.8462 94.2696 83.3113 95.5609 82.3592 96.513L85.1876 99.3414ZM87.8462 92.9231V15.0769H83.8462V92.9231H87.8462ZM87.8462 15.0769C87.8462 12.6696 86.8898 10.3608 85.1876 8.65857L82.3592 11.487C83.3113 12.4391 83.8462 13.7304 83.8462 15.0769H87.8462ZM85.1876 8.65857C83.4853 6.95632 81.1766 6 78.7692 6V10C80.1157 10 81.407 10.5349 82.3592 11.487L85.1876 8.65857ZM29.2308 83.8462C28.5766 83.8462 27.9371 83.6522 27.3931 83.2887L25.1708 86.6146C26.3726 87.4176 27.7854 87.8462 29.2308 87.8462V83.8462ZM27.3931 83.2887C26.8492 82.9253 26.4252 82.4087 26.1749 81.8043L22.4793 83.335C23.0324 84.6703 23.9691 85.8116 25.1708 86.6146L27.3931 83.2887ZM26.1749 81.8043C25.9245 81.1999 25.859 80.5348 25.9866 79.8932L22.0635 79.1128C21.7815 80.5304 21.9262 81.9997 22.4793 83.335L26.1749 81.8043ZM25.9866 79.8932C26.1143 79.2515 26.4293 78.6622 26.8919 78.1996L24.0634 75.3711C23.0415 76.3931 22.3455 77.6952 22.0635 79.1128L25.9866 79.8932ZM26.8919 78.1996C27.3545 77.737 27.9438 77.422 28.5855 77.2943L27.8051 73.3712C26.3875 73.6532 25.0854 74.3492 24.0634 75.3711L26.8919 78.1996ZM28.5855 77.2943C29.2271 77.1667 29.8922 77.2322 30.4966 77.4826L32.0273 73.787C30.692 73.2339 29.2227 73.0892 27.8051 73.3712L28.5855 77.2943ZM30.4966 77.4826C31.101 77.7329 31.6176 78.1569 31.981 78.7008L35.3069 76.4785C34.5039 75.2768 33.3626 74.3401 32.0273 73.787L30.4966 77.4826ZM31.981 78.7008C32.3445 79.2447 32.5385 79.8843 32.5385 80.5385H36.5385C36.5385 79.0931 36.1099 77.6803 35.3069 76.4785L31.981 78.7008ZM32.5385 80.5385C32.5385 81.4157 32.19 82.257 31.5697 82.8774L34.3981 85.7058C35.7685 84.3353 36.5385 82.4766 36.5385 80.5385L32.5385 80.5385ZM31.5697 82.8774C30.9493 83.4977 30.108 83.8462 29.2308 83.8462V87.8462C31.1689 87.8462 33.0276 87.0762 34.3981 85.7058L31.5697 82.8774ZM29.2308 66.1538C28.5766 66.1538 27.9371 65.9599 27.3931 65.5964L25.1708 68.9223C26.3726 69.7253 27.7854 70.1538 29.2308 70.1538L29.2308 66.1538ZM27.3931 65.5964C26.8492 65.2329 26.4252 64.7164 26.1749 64.1119L22.4793 65.6427C23.0324 66.978 23.9691 68.1193 25.1708 68.9223L27.3931 65.5964ZM26.1749 64.1119C25.9245 63.5075 25.859 62.8425 25.9866 62.2009L22.0635 61.4205C21.7815 62.8381 21.9262 64.3074 22.4793 65.6427L26.1749 64.1119ZM25.9866 62.2009C26.1143 61.5592 26.4293 60.9699 26.8919 60.5073L24.0634 57.6788C23.0415 58.7008 22.3455 60.0029 22.0635 61.4205L25.9866 62.2009ZM26.8919 60.5073C27.3545 60.0447 27.9438 59.7296 28.5855 59.602L27.8051 55.6789C26.3875 55.9608 25.0854 56.6568 24.0634 57.6788L26.8919 60.5073ZM28.5855 59.602C29.2271 59.4744 29.8922 59.5399 30.4966 59.7902L32.0273 56.0947C30.692 55.5416 29.2227 55.3969 27.8051 55.6789L28.5855 59.602ZM30.4966 59.7902C31.101 60.0406 31.6176 60.4646 31.981 61.0085L35.3069 58.7862C34.5039 57.5845 33.3626 56.6478 32.0273 56.0947L30.4966 59.7902ZM31.981 61.0085C32.3445 61.5524 32.5385 62.192 32.5385 62.8462H36.5385C36.5385 61.4008 36.1099 59.988 35.3069 58.7862L31.981 61.0085ZM32.5385 62.8462C32.5385 63.7234 32.19 64.5647 31.5697 65.185L34.3981 68.0135C35.7685 66.643 36.5385 64.7843 36.5385 62.8462L32.5385 62.8462ZM31.5697 65.185C30.9493 65.8054 30.108 66.1538 29.2308 66.1538V70.1538C31.1689 70.1538 33.0276 69.3839 34.3981 68.0135L31.5697 65.185ZM46.9231 83.8462C46.2689 83.8462 45.6294 83.6522 45.0854 83.2887L42.8631 86.6146C44.0649 87.4176 45.4778 87.8462 46.9231 87.8462L46.9231 83.8462ZM45.0854 83.2887C44.5415 82.9253 44.1175 82.4087 43.8672 81.8043L40.1717 83.335C40.7248 84.6703 41.6614 85.8116 42.8631 86.6146L45.0854 83.2887ZM43.8672 81.8043C43.6168 81.1999 43.5513 80.5348 43.6789 79.8932L39.7558 79.1128C39.4738 80.5304 39.6185 81.9997 40.1717 83.335L43.8672 81.8043ZM43.6789 79.8932C43.8066 79.2515 44.1216 78.6622 44.5842 78.1996L41.7558 75.3711C40.7338 76.3931 40.0378 77.6952 39.7558 79.1128L43.6789 79.8932ZM44.5842 78.1996C45.0468 77.737 45.6362 77.422 46.2778 77.2943L45.4974 73.3712C44.0799 73.6532 42.7778 74.3492 41.7558 75.3711L44.5842 78.1996ZM46.2778 77.2943C46.9194 77.1667 47.5845 77.2322 48.1889 77.4826L49.7196 73.787C48.3843 73.2339 46.915 73.0892 45.4974 73.3712L46.2778 77.2943ZM48.1889 77.4826C48.7933 77.7329 49.3099 78.1569 49.6733 78.7008L52.9992 76.4785C52.1962 75.2768 51.0549 74.3401 49.7196 73.787L48.1889 77.4826ZM49.6733 78.7008C50.0368 79.2447 50.2308 79.8843 50.2308 80.5385L54.2308 80.5385C54.2308 79.0931 53.8022 77.6803 52.9992 76.4785L49.6733 78.7008ZM50.2308 80.5385C50.2308 81.4157 49.8823 82.257 49.262 82.8774L52.0904 85.7058C53.4608 84.3353 54.2308 82.4766 54.2308 80.5385H50.2308ZM49.262 82.8774C48.6416 83.4977 47.8003 83.8462 46.9231 83.8462V87.8462C48.8612 87.8462 50.7199 87.0762 52.0904 85.7058L49.262 82.8774ZM46.9231 66.1538C46.2689 66.1538 45.6294 65.9599 45.0854 65.5964L42.8631 68.9223C44.0649 69.7253 45.4778 70.1538 46.9231 70.1538V66.1538ZM45.0854 65.5964C44.5415 65.2329 44.1175 64.7164 43.8672 64.1119L40.1717 65.6427C40.7248 66.978 41.6614 68.1193 42.8631 68.9223L45.0854 65.5964ZM43.8672 64.1119C43.6168 63.5075 43.5513 62.8425 43.6789 62.2009L39.7558 61.4205C39.4738 62.8381 39.6185 64.3074 40.1717 65.6427L43.8672 64.1119ZM43.6789 62.2009C43.8066 61.5592 44.1216 60.9699 44.5842 60.5073L41.7558 57.6788C40.7338 58.7008 40.0378 60.0029 39.7558 61.4205L43.6789 62.2009ZM44.5842 60.5073C45.0468 60.0447 45.6362 59.7296 46.2778 59.602L45.4974 55.6789C44.0799 55.9608 42.7778 56.6568 41.7558 57.6788L44.5842 60.5073ZM46.2778 59.602C46.9194 59.4744 47.5845 59.5399 48.1889 59.7902L49.7196 56.0947C48.3843 55.5416 46.915 55.3969 45.4974 55.6789L46.2778 59.602ZM48.1889 59.7902C48.7933 60.0406 49.3099 60.4646 49.6733 61.0085L52.9992 58.7862C52.1962 57.5845 51.0549 56.6478 49.7196 56.0947L48.1889 59.7902ZM49.6733 61.0085C50.0368 61.5524 50.2308 62.192 50.2308 62.8462H54.2308C54.2308 61.4008 53.8022 59.988 52.9992 58.7862L49.6733 61.0085ZM50.2308 62.8462C50.2308 63.7234 49.8823 64.5647 49.262 65.185L52.0904 68.0135C53.4608 66.643 54.2308 64.7843 54.2308 62.8462H50.2308ZM49.262 65.185C48.6416 65.8054 47.8003 66.1538 46.9231 66.1538V70.1538C48.8612 70.1538 50.7199 69.3839 52.0904 68.0135L49.262 65.185ZM64.6154 83.8462C63.9612 83.8462 63.3217 83.6522 62.7777 83.2887L60.5554 86.6146C61.7572 87.4176 63.1701 87.8462 64.6154 87.8462L64.6154 83.8462ZM62.7777 83.2887C62.2338 82.9253 61.8098 82.4087 61.5595 81.8043L57.864 83.335C58.4171 84.6703 59.3537 85.8116 60.5554 86.6146L62.7777 83.2887ZM61.5595 81.8043C61.3091 81.1998 61.2436 80.5348 61.3712 79.8932L57.4481 79.1128C57.1661 80.5304 57.3109 81.9997 57.864 83.335L61.5595 81.8043ZM61.3712 79.8932C61.4989 79.2515 61.8139 78.6622 62.2765 78.1996L59.4481 75.3711C58.4261 76.3931 57.7301 77.6952 57.4481 79.1128L61.3712 79.8932ZM62.2765 78.1996C62.7391 77.737 63.3285 77.422 63.9701 77.2943L63.1897 73.3712C61.7722 73.6532 60.4701 74.3492 59.4481 75.3711L62.2765 78.1996ZM63.9701 77.2943C64.6117 77.1667 65.2768 77.2322 65.8812 77.4826L67.4119 73.787C66.0766 73.2339 64.6073 73.0892 63.1897 73.3712L63.9701 77.2943ZM65.8812 77.4826C66.4856 77.7329 67.0022 78.1569 67.3656 78.7008L70.6915 76.4785C69.8885 75.2768 68.7472 74.3401 67.4119 73.787L65.8812 77.4826ZM67.3656 78.7008C67.7291 79.2447 67.9231 79.8843 67.9231 80.5385L71.9231 80.5385C71.9231 79.0931 71.4945 77.6803 70.6915 76.4785L67.3656 78.7008ZM67.9231 80.5385C67.9231 81.4157 67.5746 82.257 66.9543 82.8774L69.7827 85.7058C71.1532 84.3353 71.9231 82.4766 71.9231 80.5385H67.9231ZM66.9543 82.8774C66.334 83.4977 65.4926 83.8462 64.6154 83.8462V87.8462C66.5535 87.8462 68.4122 87.0762 69.7827 85.7058L66.9543 82.8774ZM64.6154 66.1538C63.9612 66.1538 63.3217 65.9599 62.7777 65.5964L60.5554 68.9223C61.7572 69.7253 63.1701 70.1538 64.6154 70.1538V66.1538ZM62.7777 65.5964C62.2338 65.2329 61.8098 64.7164 61.5595 64.1119L57.864 65.6427C58.4171 66.978 59.3537 68.1193 60.5554 68.9223L62.7777 65.5964ZM61.5595 64.1119C61.3091 63.5075 61.2436 62.8425 61.3712 62.2009L57.4481 61.4205C57.1661 62.8381 57.3109 64.3074 57.864 65.6427L61.5595 64.1119ZM61.3712 62.2009C61.4989 61.5592 61.8139 60.9699 62.2765 60.5073L59.4481 57.6788C58.4261 58.7008 57.7301 60.0029 57.4481 61.4205L61.3712 62.2009ZM62.2765 60.5073C62.7391 60.0447 63.3285 59.7296 63.9701 59.602L63.1897 55.6789C61.7722 55.9608 60.4701 56.6568 59.4481 57.6788L62.2765 60.5073ZM63.9701 59.602C64.6117 59.4744 65.2768 59.5399 65.8812 59.7902L67.4119 56.0947C66.0766 55.5416 64.6073 55.3969 63.1897 55.6789L63.9701 59.602ZM65.8812 59.7902C66.4856 60.0406 67.0022 60.4646 67.3656 61.0085L70.6915 58.7862C69.8885 57.5845 68.7472 56.6478 67.4119 56.0947L65.8812 59.7902ZM67.3656 61.0085C67.7291 61.5524 67.9231 62.192 67.9231 62.8462H71.9231C71.9231 61.4008 71.4945 59.988 70.6915 58.7862L67.3656 61.0085ZM67.9231 62.8462C67.9231 63.7234 67.5746 64.5647 66.9543 65.185L69.7827 68.0135C71.1532 66.643 71.9231 64.7843 71.9231 62.8462H67.9231ZM66.9543 65.185C66.334 65.8054 65.4926 66.1538 64.6154 66.1538V70.1538C66.5535 70.1538 68.4122 69.3839 69.7827 68.0135L66.9543 65.185ZM69.6923 43.3846C69.6923 43.7926 69.5302 44.184 69.2417 44.4725L72.0701 47.3009C73.1088 46.2622 73.6923 44.8535 73.6923 43.3846H69.6923ZM69.2417 44.4725C68.9532 44.761 68.5619 44.9231 68.1538 44.9231V48.9231C69.6227 48.9231 71.0315 48.3396 72.0701 47.3009L69.2417 44.4725ZM25.6923 44.9231C25.2843 44.9231 24.893 44.761 24.6045 44.4725L21.776 47.3009C22.8147 48.3396 24.2234 48.9231 25.6923 48.9231V44.9231ZM24.6045 44.4725C24.3159 44.184 24.1538 43.7926 24.1538 43.3846H20.1538C20.1538 44.8535 20.7374 46.2622 21.776 47.3009L24.6045 44.4725ZM24.1538 25.6923C24.1538 25.2843 24.3159 24.893 24.6045 24.6045L21.776 21.776C20.7374 22.8147 20.1538 24.2234 20.1538 25.6923H24.1538ZM24.6045 24.6045C24.893 24.3159 25.2843 24.1538 25.6923 24.1538L25.6923 20.1538C24.2234 20.1538 22.8147 20.7374 21.776 21.776L24.6045 24.6045ZM68.1538 24.1538C68.5619 24.1538 68.9532 24.3159 69.2417 24.6045L72.0701 21.776C71.0315 20.7374 69.6227 20.1538 68.1538 20.1538V24.1538ZM69.2417 24.6045C69.5302 24.893 69.6923 25.2843 69.6923 25.6923H73.6923C73.6923 24.2234 73.1088 22.8147 72.0701 21.776L69.2417 24.6045ZM48.8928 77.1319L55.3579 40.3848L51.4184 39.6917L44.9533 76.4388L48.8928 77.1319ZM51.6689 39.0165C49.1134 43.3162 46.3432 46.708 43.3787 49.2405L45.9769 52.2818C49.3435 49.4057 52.3801 45.6489 55.1074 41.0601L51.6689 39.0165ZM43.3846 49.2355C40.4027 51.7632 37.8928 52.7861 35.8102 52.7861V56.7861C39.2201 56.7861 42.622 55.1257 45.9711 52.2868L43.3846 49.2355ZM35.8102 52.7861C34.5017 52.7861 33.5054 52.2807 32.6662 51.0881L29.3949 53.3901C30.9455 55.5935 33.1356 56.7861 35.8102 56.7861V52.7861ZM32.6757 51.1017C31.7366 49.7434 31.2696 48.2442 31.2696 46.5475H27.2696C27.2696 49.0435 27.9766 51.3386 29.3854 53.3764L32.6757 51.1017ZM31.2696 46.5475C31.2696 42.7553 32.3262 38.6946 34.5423 34.3423L30.9778 32.5273C28.54 37.315 27.2696 41.9961 27.2696 46.5475H31.2696ZM34.539 34.3487C36.7759 29.9947 39.4625 26.7249 42.5601 24.4496L40.192 21.2258C36.4974 23.9398 33.44 27.7347 30.9811 32.5208L34.539 34.3487ZM42.5665 24.4448C45.6529 22.1586 48.8688 21.0643 52.2561 21.0643V17.0643C47.9288 17.0643 43.8914 18.4856 40.1856 21.2306L42.5665 24.4448ZM52.2561 21.0643C52.8772 21.0643 53.5759 21.1176 54.3564 21.2319L54.9356 17.274C53.9971 17.1367 53.1025 17.0643 52.2561 17.0643V21.0643ZM54.3564 21.2319C55.1182 21.3433 55.9446 21.5226 56.8378 21.775L57.9256 17.9258C56.8902 17.6331 55.8928 17.4141 54.9356 17.274L54.3564 21.2319ZM57.3817 21.8504H63.6079V17.8504H57.3817V21.8504ZM61.6395 19.4963L51.1116 78.0259L55.0484 78.7341L65.5763 20.2045L61.6395 19.4963ZM56.7949 33.0454L58.3986 25.1211L54.4781 24.3277L52.8744 32.2519L56.7949 33.0454ZM57.3719 22.9556C56.4741 22.4818 55.5402 22.127 54.5723 21.8978L53.6505 25.7901C54.2759 25.9382 54.8932 26.1704 55.5048 26.4932L57.3719 22.9556ZM54.6204 21.9098C53.6506 21.6546 52.651 21.5295 51.6272 21.5295V25.5295C52.3224 25.5295 52.979 25.614 53.6024 25.7781L54.6204 21.9098ZM51.6272 21.5295C48.6726 21.5295 45.8332 22.7642 43.1422 24.9262L45.6474 28.0445C47.8619 26.2653 49.8441 25.5295 51.6272 25.5295V21.5295ZM43.1422 24.9262C40.3676 27.1554 38.1608 30.3285 36.4556 34.3148L40.1332 35.888C41.6564 32.3273 43.5166 29.7565 45.6474 28.0445L43.1422 24.9262ZM36.4556 34.3148C34.7693 38.2567 33.8731 41.9462 33.8731 45.3525H37.8731C37.8731 42.6376 38.5911 39.4929 40.1332 35.888L36.4556 34.3148ZM33.8731 45.3525C33.8731 46.6066 34.1476 47.8136 34.8214 48.8581L38.1826 46.6896C38.0179 46.4343 37.8731 46.0271 37.8731 45.3525H33.8731ZM34.8462 48.8955C35.6983 50.1534 37.0029 50.7486 38.4516 50.7486V46.7486C38.2759 46.7486 38.2148 46.7165 38.214 46.7161C38.2114 46.7148 38.2094 46.7137 38.2047 46.7094C38.1993 46.7047 38.1826 46.6887 38.1579 46.6521L34.8462 48.8955ZM38.4516 50.7486C39.7705 50.7486 41.0746 50.1943 42.2828 49.4371C43.5214 48.6609 44.8547 47.547 46.2762 46.1501C49.1215 43.3539 52.5164 39.2273 56.4512 33.8263L53.2181 31.471C49.3335 36.8033 46.0882 40.7267 43.4725 43.2972C42.1635 44.5836 41.0611 45.4822 40.1587 46.0477C39.2261 46.6321 38.6841 46.7486 38.4516 46.7486V50.7486ZM53.08 78.38C51.1562 77.8332 51.1563 77.8329 51.1564 77.8326C51.1564 77.8326 51.1565 77.8323 51.1565 77.8321C51.1566 77.8318 51.1567 77.8315 51.1568 77.8312C51.1569 77.8306 51.1571 77.8301 51.1572 77.8297C51.1575 77.8288 51.1576 77.8282 51.1577 77.8278C51.1579 77.8272 51.1578 77.8276 51.1574 77.8291C51.1565 77.8321 51.1544 77.8392 51.1511 77.8499C51.1445 77.8715 51.1333 77.9073 51.1178 77.9538C51.0863 78.0483 51.0399 78.1788 50.9818 78.3197C50.9225 78.4635 50.8597 78.597 50.7987 78.7052C50.7317 78.8239 50.7005 78.8522 50.7226 78.8294L53.5974 81.6106C54.1579 81.0313 54.5047 80.2691 54.6798 79.8445C54.7814 79.5981 54.8596 79.3775 54.9128 79.2178C54.9397 79.1371 54.9608 79.07 54.976 79.0205C54.9836 78.9957 54.9897 78.9752 54.9943 78.9595C54.9966 78.9516 54.9986 78.9449 55.0002 78.9394C55.001 78.9367 55.0017 78.9343 55.0023 78.9322C55.0026 78.9311 55.0028 78.9302 55.0031 78.9293C55.0032 78.9288 55.0033 78.9284 55.0035 78.928C55.0035 78.9278 55.0036 78.9275 55.0036 78.9274C55.0037 78.9271 55.0038 78.9268 53.08 78.38ZM48.7628 78.6815C48.672 78.6452 48.6783 78.6392 48.7272 78.6727C48.7539 78.691 48.7878 78.7173 48.8244 78.7519C48.8612 78.7868 48.8916 78.8216 48.9151 78.8522C48.9571 78.9068 48.9633 78.9313 48.9233 78.8512C48.904 78.8125 48.8812 78.7644 48.847 78.6913C48.8154 78.6238 48.7733 78.5332 48.7277 78.4378L45.1185 80.1622C45.1682 80.2663 45.2752 80.499 45.3438 80.6364C45.4298 80.8088 45.5569 81.0468 45.7437 81.2898C46.1794 81.8567 46.7212 82.173 47.2772 82.3954L48.7628 78.6815ZM48.7277 78.4378C48.8075 78.6049 48.784 78.6634 48.773 78.4801C48.7644 78.3377 48.7689 78.1475 48.7864 77.931C48.8033 77.7212 48.8293 77.5231 48.8517 77.3758C48.8627 77.3033 48.8723 77.2458 48.8788 77.2088C48.8821 77.1903 48.8845 77.1771 48.8858 77.1698C48.8865 77.1662 48.8869 77.164 48.887 77.1635C48.8871 77.1632 48.887 77.1633 48.8869 77.1638C48.8869 77.1641 48.8868 77.1644 48.8867 77.1649C48.8867 77.1651 48.8866 77.1654 48.8866 77.1657C48.8866 77.1658 48.8865 77.166 48.8865 77.1661C48.8865 77.1664 48.8864 77.1666 46.9231 76.7854C44.9597 76.4041 44.9597 76.4044 44.9596 76.4047C44.9596 76.4048 44.9596 76.405 44.9595 76.4052C44.9595 76.4056 44.9594 76.406 44.9593 76.4065C44.9591 76.4074 44.9589 76.4084 44.9587 76.4095C44.9583 76.4118 44.9578 76.4144 44.9572 76.4176C44.956 76.4238 44.9545 76.4318 44.9527 76.4414C44.9491 76.4607 44.9444 76.4866 44.9388 76.5184C44.9277 76.582 44.913 76.6699 44.8968 76.7764C44.8649 76.987 44.8258 77.2814 44.7994 77.6093C44.7734 77.9307 44.7563 78.3237 44.7802 78.7209C44.8017 79.0772 44.8651 79.6318 45.1185 80.1622L48.7277 78.4378ZM50.7226 78.8294C50.8207 78.7279 50.9069 78.67 50.9501 78.6435C50.9738 78.629 50.992 78.6194 51.0032 78.6138C51.0145 78.6082 51.0211 78.6054 51.0222 78.605C51.0232 78.6045 51.0119 78.6092 50.9859 78.617C50.9607 78.6246 50.929 78.633 50.8916 78.6414C50.815 78.6587 50.7379 78.6712 50.6784 78.6792C50.65 78.683 50.6289 78.6853 50.6179 78.6865C50.6124 78.687 50.6097 78.6873 50.6101 78.6872C50.6103 78.6872 50.6113 78.6871 50.6131 78.687C50.614 78.6869 50.6151 78.6868 50.6165 78.6867C50.6171 78.6866 50.6179 78.6866 50.6186 78.6865C50.619 78.6865 50.6194 78.6865 50.6198 78.6864C50.6201 78.6864 50.6204 78.6864 50.6205 78.6864C50.6208 78.6863 50.6211 78.6863 50.78 80.68C50.9389 82.6737 50.9392 82.6737 50.9395 82.6736C50.9397 82.6736 50.94 82.6736 50.9402 82.6736C50.9407 82.6735 50.9412 82.6735 50.9417 82.6734C50.9428 82.6734 50.9439 82.6733 50.945 82.6732C50.9473 82.673 50.9499 82.6728 50.9527 82.6725C50.9584 82.672 50.9651 82.6715 50.9728 82.6708C50.9882 82.6694 51.0076 82.6675 51.0306 82.6651C51.0764 82.6604 51.1373 82.6534 51.2096 82.6437C51.3515 82.6247 51.5506 82.5933 51.7732 82.543C51.9895 82.4942 52.2693 82.4183 52.557 82.2988C52.8211 82.189 53.2356 81.9847 53.5974 81.6106L50.7226 78.8294ZM50.78 80.68C50.6604 78.6836 50.6606 78.6836 50.6607 78.6836C50.6607 78.6836 50.6609 78.6836 50.6609 78.6835C50.661 78.6835 50.6611 78.6835 50.6612 78.6835C50.6613 78.6835 50.6613 78.6835 50.6612 78.6835C50.661 78.6835 50.6603 78.6836 50.6591 78.6837C50.6567 78.6838 50.6525 78.684 50.6464 78.6844C50.6343 78.685 50.6151 78.6861 50.5896 78.6873C50.5386 78.6899 50.4629 78.6933 50.3693 78.6968C50.1804 78.7037 49.9259 78.7102 49.6569 78.7093C49.3827 78.7084 49.121 78.6998 48.9098 78.681C48.6426 78.6573 48.6385 78.6318 48.7628 78.6815L47.2772 82.3954C47.7351 82.5786 48.2427 82.6375 48.5556 82.6653C48.9245 82.6981 49.3111 82.7082 49.6435 82.7093C49.9811 82.7104 50.2914 82.7023 50.5159 82.6941C50.6289 82.6899 50.7219 82.6857 50.7879 82.6824C50.821 82.6808 50.8474 82.6794 50.8663 82.6783C50.8757 82.6778 50.8833 82.6774 50.8888 82.677C50.8916 82.6769 50.8939 82.6768 50.8957 82.6767C50.8966 82.6766 50.8974 82.6766 50.898 82.6765C50.8983 82.6765 50.8986 82.6765 50.8989 82.6765C50.899 82.6765 50.8992 82.6764 50.8992 82.6764C50.8994 82.6764 50.8996 82.6764 50.78 80.68Z" fill="black" mask="url(#path-1-outside-1_74_17)"/>
</g>
<defs>
<filter id="filter0_d_74_17" x="0" y="0" width="93.8462" height="108" filterUnits="userSpaceOnUse" color-interpolation-filters="sRGB">
<feFlood flood-opacity="0" result="BackgroundImageFix"/>
<feColorMatrix in="SourceAlpha" type="matrix" values="0 0 0 0 0 0 0 0 0 0 0 0 0 0 0 0 0 0 127 0" result="hardAlpha"/>
<feOffset/>
<feGaussianBlur stdDeviation="3"/>
<feComposite in2="hardAlpha" operator="out"/>
<feColorMatrix type="matrix" values="0 0 0 0 0 0 0 0 0 0 0 0 0 0 0 0 0 0 0.71 0"/>
<feBlend mode="normal" in2="BackgroundImageFix" result="effect1_dropShadow_74_17"/>
<feBlend mode="normal" in="SourceGraphic" in2="effect1_dropShadow_74_17" result="shape"/>
</filter>
<linearGradient id="paint0_linear_74_17" x1="85.8462" y1="2.45783" x2="-16.2417" y2="37.4795" gradientUnits="userSpaceOnUse">
<stop stop-color="#BA7FE9"/>
<stop offset="1" stop-color="#622394"/>
</linearGradient>
<linearGradient id="paint1_linear_74_17" x1="82.6026" y1="3.17284" x2="19.4349" y2="107.877" gradientUnits="userSpaceOnUse">
<stop stop-color="#1B1B1B"/>
<stop offset="1" stop-color="#101010"/>
</linearGradient>
</defs>
</svg>
