<svg width="500" height="225" viewBox="0 0 500 225" fill="none" xmlns="http://www.w3.org/2000/svg">
    <path
        d="M93.4433 102.36C93.5006 101.459 90.9798 101.516 90.9225 102.417C89.8391 118.376 78.6829 139.433 68.787 148.011C69.6256 126.292 71.2454 104.516 72.8652 82.8599C73.1047 78.9641 61.886 78.8443 61.5839 83.0422C61.5839 83.2818 61.5839 83.4589 61.5266 83.6985C57.7454 78.7245 51.5683 75.9641 45.3912 79.261C39.9902 82.2037 36.9902 88.9797 34.9537 94.3807C32.2506 101.636 31.11 109.376 31.5943 117.115C31.9537 122.813 32.61 131.813 37.11 136.073C41.1308 139.792 47.7298 140.271 52.3495 137.334C55.287 135.469 57.1464 132.292 58.4693 128.813C57.386 148.068 56.6672 167.386 56.9693 186.641C57.1464 197.98 58.7662 217.235 74.8443 213.579C84.4433 211.417 87.9225 189.282 85.7037 177.225C83.6048 165.709 79.162 154.787 68.9068 152.266C78.8652 145.969 90.9225 127.974 93.4433 102.36ZM60.6256 95.8807C57.1464 105.417 56.3079 115.735 52.7089 125.334C51.9277 127.495 51.1464 129.771 49.9485 131.751C49.5266 132.474 48.1464 134.631 46.9485 134.271C46.5891 134.152 45.8079 132.474 45.6308 132.11C43.2923 127.792 42.2714 122.573 41.6725 117.714C40.4693 108.355 41.1881 97.9797 44.4277 89.0422C45.2089 86.938 46.1673 84.7818 47.7298 83.0995C50.4277 80.3391 53.6672 81.662 55.8287 84.4797C58.0475 87.4224 59.1881 90.9589 60.7454 94.3182C60.7454 94.8599 60.6881 95.3391 60.6256 95.8807ZM79.9433 171.167C85.3443 204.938 73.7037 208.537 71.9641 206.98C71.7245 206.62 71.485 206.198 71.2454 205.839C67.4068 198.938 68.1829 189.344 68.1256 181.725C68.0631 172.844 68.2454 164.027 68.485 155.209C74.8443 157.428 78.985 164.865 79.9433 171.167Z"
        fill="white" />
    <path
        d="M142.631 107.516C141.553 117.537 138.673 127.553 135.553 137.152C134.115 141.532 132.553 145.188 130.032 149.032C130.032 148.969 130.032 148.969 129.975 148.907C129.496 148.188 129.074 147.412 128.772 146.631C127.933 144.709 127.636 142.553 127.272 140.448C124.032 121.735 128.475 101.099 127.574 82.2609C127.334 78.2401 116.298 80.339 116.657 84.1203C116.714 84.6619 116.714 85.1411 116.714 85.6828C116.595 96.4172 108.615 133.49 104.839 134.87C100.699 136.37 99.1987 127.375 99.1987 127.375C98.1205 122.933 97.6414 118.313 97.4018 113.756C97.0372 108.657 97.157 87.7817 97.0372 82.6203C96.9799 78.2401 90.1414 79.9797 88.4591 82.0838C86.0633 84.9588 86.183 94.0786 86.1205 101.277C86.0008 107.636 86.1205 114.115 86.8393 120.412C87.9226 129.891 91.8185 144.412 103.636 140.568C110.475 138.349 111.735 127.433 115.334 116.157C115.214 118.073 115.095 120.053 115.037 122.032C114.855 128.271 115.037 134.511 116.178 140.693C116.954 145.011 117.798 150.23 121.876 152.75C129.855 157.547 135.251 150.948 137.652 143.568C141.61 131.573 145.272 119.995 144.673 107.459C144.673 107.157 142.693 107.219 142.631 107.516Z"
        fill="white" />
    <path
        d="M140.888 98.3964C140.711 104.516 140.471 110.636 140.289 116.693C139.992 125.573 139.148 138.771 147.127 144.891C149.107 146.329 151.388 147.11 153.669 147.11C167.706 147.11 172.622 119.813 174.903 106.917C175.086 105.599 172.565 105.355 172.383 106.615C170.945 115.193 164.888 141.948 156.846 141.771C153.726 141.709 152.409 134.094 152.049 131.87C150.669 123.532 151.57 114.834 151.867 106.438C151.987 102.178 152.711 90.5995 152.528 86.2818C152.528 86.0995 152.528 85.8599 152.528 85.6828C155.107 85.5005 156.19 84.9589 156.127 83.5787C156.07 81.7193 151.987 80.8807 146.831 80.8807C141.669 80.8807 137.471 81.1203 137.471 83.5787C137.471 85.1412 139.45 85.7401 141.549 85.8026C141.549 85.9797 141.492 86.2193 141.492 86.4016C141.492 89.4589 141.013 95.3391 140.888 98.3964Z"
        fill="white" />
    <path
        d="M215.037 101.459C204.537 151.667 185.703 140.271 183.063 137.152C179.584 133.011 179.224 128.875 178.985 123.652C178.443 112.974 179.823 101.516 184.261 91.7401C185.224 89.5213 186.302 87.2401 187.74 85.3182C189.719 82.6828 189.719 84.063 190.74 86.8182C192.901 92.8182 191.521 98.4588 191.641 104.516C191.641 108.178 201.177 105.719 201.719 102.959C202.381 99.2974 204.058 87.7817 199.797 81.7817C196.021 76.5005 188.099 75.7244 182.641 78.6619C175.563 82.4432 172.323 91.7974 170.407 99.0005C168.365 106.797 167.464 115.016 167.766 123.053C168.006 130.313 169.808 137.933 175.266 143.089C179.886 147.532 188.224 148.49 194.401 147.292C206.396 144.948 215.459 125.636 216.719 101.277C216.719 100.917 215.276 100.256 215.037 101.459Z"
        fill="white" />
    <path
        d="M257.091 163.724C250.731 161.146 249.169 149.568 248.809 143.631C248.028 129.412 245.512 110.157 235.012 108.355C234.231 108.235 233.934 108.297 233.632 108.355C245.393 81.1828 247.971 82.3807 249.169 81.4797C249.231 81.5422 249.288 81.5422 249.351 81.5995C250.132 82.563 250.788 84.7193 249.408 87.9589C248.45 90.2401 253.189 91.0214 253.851 88.5578C255.351 83.8234 254.57 80.5214 253.429 79.3807C251.091 77.0422 247.429 76.7401 243.893 78.5995C231.174 86.162 222.294 120.657 221.877 121.792C221.877 115.615 222.294 100.797 222.653 94.6203C222.653 94.5578 222.653 94.1412 222.716 93.4797H222.773C222.773 93.3599 222.773 93.2401 222.773 93.1776C245.992 56.2245 247.908 22.9901 238.434 17.5943C233.393 14.7141 228.111 18.6724 226.794 19.9901C221.757 24.8495 219.835 33.5526 218.158 40.0891C215.216 51.9693 213.716 64.2662 212.695 76.563C212.637 76.9224 212.637 77.2818 212.575 77.7037C212.518 78.7245 212.455 79.8026 212.398 80.8234C212.096 84.3026 211.856 87.7193 211.679 91.1412C210.538 110.396 210.778 129.594 212.455 148.73C212.814 152.688 220.736 152.329 221.033 148.787C221.518 145.849 224.455 133.61 225.533 130.193C227.153 125.152 228.773 120.594 230.335 116.454C230.632 115.558 231.231 114.235 231.231 114.058C238.132 116.636 239.091 132.292 239.57 137.933C240.471 148.547 239.33 165.344 249.83 167.688C251.45 168.047 256.788 168.527 257.986 167.027C259.007 165.829 258.71 164.329 257.091 163.724ZM229.674 38.8911C230.752 34.9276 232.075 31.0318 233.752 27.2505C234.294 26.0526 235.913 22.3339 236.814 22.2141C237.591 22.0943 239.45 27.1932 239.689 28.6307C241.07 36.6672 238.372 46.0891 236.21 53.7661C233.153 64.8026 228.533 74.9432 223.257 84.8391C223.314 83.2818 223.434 81.7193 223.554 80.162C223.617 79.3234 223.674 78.4797 223.736 77.5839C224.695 64.5057 226.252 51.3078 229.674 38.8911Z"
        fill="white" />
    <mask id="mask0_62_2" style="mask-type:luminance" maskUnits="userSpaceOnUse" x="96" y="41" width="42" height="36">
        <path d="M96 41.3334H137.333V76.7761H96V41.3334Z" fill="white" />
    </mask>
    <g mask="url(#mask0_62_2)">
        <path
            d="M119.989 54.3178C120.156 54.3178 120.37 54.3491 120.573 54.3126C121.047 54.2345 121.531 54.1616 121.995 54.0209C122.932 53.7345 123.911 53.6459 124.87 53.6407C126.646 53.6355 128.422 53.5366 130.198 53.5939C131.286 53.6355 132.338 53.823 133.37 54.1616C134.219 54.4324 134.911 54.9272 135.521 55.5626C135.557 55.5991 135.594 55.6355 135.625 55.6824C136.036 56.2605 136.401 57.1043 135.661 57.8959C135.37 58.2084 135.12 58.573 134.792 58.8491C134.453 59.1303 134.161 59.4324 133.901 59.7814C133.469 60.3595 132.906 60.7657 132.255 61.0574C131.271 61.5053 130.271 61.8959 129.193 62.0782C127.495 62.3595 125.797 62.6616 124.099 62.9636C123.411 63.0834 122.729 63.2397 122.088 63.4584C121.677 64.3543 121.677 64.3543 121.682 65.0157C121.687 65.5001 121.765 65.9793 121.573 66.4584C121.5 66.6355 121.531 66.9064 121.614 67.0886C122.005 67.9532 122.114 68.8491 122.062 69.7866C122.052 69.9428 122.078 70.1095 122.094 70.2709C122.167 70.9845 122.114 71.6772 121.859 72.3543C121.765 72.6043 121.693 72.8699 121.661 73.1407C121.604 73.5886 121.417 73.9584 121.13 74.297C120.781 74.7084 120.469 75.1511 120.12 75.5626C119.396 76.4272 118.453 76.7241 117.37 76.5834C116.297 76.4428 115.453 75.9376 114.828 75.0261C114.333 74.3126 113.828 73.6095 113.614 72.7501C113.521 72.3855 113.448 72.0105 113.411 71.6407C113.307 70.5053 113.208 69.3751 113.125 68.2397C113.047 67.1564 112.922 66.0886 112.302 65.1407C112.193 64.9689 112.182 64.7345 112.13 64.547C111.984 64.5418 111.87 64.5053 111.776 64.5418C110.448 65.0105 109.057 65.198 107.672 65.422C107.458 65.4584 107.245 65.4689 107.031 65.5105C104.943 65.8959 102.844 65.7918 100.745 65.6564C99.9894 65.6095 99.2447 65.5053 98.4894 65.4897C97.4061 65.4584 96.7759 64.8126 96.4634 63.9011C96.0467 62.6668 95.8228 61.3855 96.1665 60.0678C96.2499 59.7605 96.2707 59.4324 96.2863 59.1095C96.3019 58.8699 96.4113 58.7084 96.5988 58.5834C96.7342 58.4949 96.9217 58.4376 96.9947 58.3126C97.3697 57.6407 97.9999 57.3595 98.6822 57.1511C98.9894 57.0574 99.3072 56.9689 99.5936 56.8178C100.953 56.1199 102.432 55.7918 103.88 55.3803C104.5 55.2084 105.146 55.1355 105.786 55.047C107.068 54.8699 108.349 54.7136 109.63 54.547C109.739 54.5366 109.844 54.5105 109.948 54.4897C110.109 54.4532 110.333 54.1824 110.328 54.0105C110.255 52.3334 110.375 50.6616 110.417 48.9845C110.458 47.3386 110.771 45.7605 111.557 44.3022C111.713 44.0157 111.844 43.7189 111.969 43.4168C112.219 42.8334 112.594 42.4376 113.26 42.323C113.5 42.2866 113.719 42.0626 113.927 41.9011C114.219 41.6772 114.521 41.6928 114.849 41.7814C115.338 41.922 115.734 42.2032 115.979 42.6459C116.213 43.0678 116.432 43.5105 116.588 43.9689C117.432 46.4845 118.364 48.9689 119.318 51.4428C119.578 52.1043 119.734 52.7866 119.776 53.4949C119.807 53.7501 119.771 54.0314 119.989 54.3178ZM97.3801 59.8126C97.1978 60.547 97.203 61.0314 97.5103 61.4584C97.9322 62.0366 98.4478 62.4949 99.1665 62.6824C99.9009 62.8751 100.635 63.0157 101.401 62.9428C102.151 62.8699 102.901 62.8178 103.646 62.672C104.594 62.4897 105.562 62.4011 106.526 62.3126C107.01 62.2709 107.484 62.2136 107.963 62.1616C109.146 62.0261 110.302 61.7449 111.463 61.5418C112.312 61.3959 113.172 61.323 114.026 61.2241C114.265 61.1928 114.573 61.4324 114.635 61.6668C114.661 61.7709 114.687 61.8751 114.703 61.9845C115.021 63.9011 115.333 65.823 115.667 67.7449C115.901 69.1303 116.161 70.5157 116.573 71.8647C116.833 72.7293 117.286 73.4324 118.052 73.9064C118.448 74.1511 118.859 74.1668 119.281 73.9428C119.87 73.6303 120.286 73.1303 120.724 72.6564C121.229 72.1043 121.432 71.4689 121.354 70.7189C121.286 70.073 121.286 69.422 121.229 68.7761C121.203 68.5105 121.151 68.2397 121.068 67.9845C120.39 65.9793 119.974 63.9168 119.693 61.823C119.64 61.4272 119.807 61.1772 120.177 61.1407C120.979 61.0522 121.786 60.9949 122.583 60.8699C123.755 60.6824 124.927 60.5314 126.104 60.4011C126.958 60.3074 127.807 60.1147 128.646 59.922C129.64 59.6928 130.635 59.4428 131.614 59.1564C132.234 58.9793 132.838 58.7345 133.437 58.5001C134.094 58.2345 134.64 57.797 135.161 57.323C135.396 57.1095 135.417 56.698 135.224 56.4324C134.734 55.7501 134.12 55.2293 133.328 54.9741C132.198 54.6147 131.057 54.3126 129.849 54.3543C128.286 54.4064 126.729 54.4584 125.167 54.4636C124.193 54.4689 123.239 54.5834 122.292 54.8022C121.661 54.9532 121.026 55.073 120.396 55.198C120.078 55.2605 119.76 55.3178 119.443 55.3647C119.271 55.3907 118.974 55.172 118.963 54.9949C118.927 54.5678 118.859 54.1355 118.896 53.7084C118.943 53.1459 118.854 52.6303 118.672 52.1147C118.177 50.7397 117.682 49.3699 117.167 48.0001C116.745 46.8907 116.312 45.7814 115.984 44.6407C115.875 44.2761 115.75 43.9168 115.588 43.573C115.469 43.3334 115.297 43.1199 115.125 42.9168C114.927 42.6772 114.489 42.6668 114.245 42.8647C113.75 43.2501 113.448 43.7605 113.39 44.3751C113.229 46.0418 112.979 47.7084 113.146 49.3959C113.182 49.7709 113.182 50.1511 113.193 50.5261C113.213 51.172 113.229 51.823 113.25 52.4741C113.271 52.9636 113.354 53.4376 113.64 53.8595C113.734 53.9897 113.797 54.1459 113.854 54.2918C113.943 54.5105 113.901 54.7189 113.76 54.9011C113.588 55.1199 113.39 55.3074 113.099 55.323C112.187 55.3699 111.276 55.4011 110.364 55.448C109.828 55.4793 109.286 55.5001 108.755 55.5626C107.792 55.672 106.833 55.8334 105.87 55.9272C104.844 56.0366 103.849 56.2449 102.875 56.5782C101.552 57.0314 100.245 57.5261 98.9165 57.9636C98.3019 58.1668 97.9113 58.5782 97.6405 59.1303C97.4842 59.422 97.4061 59.7397 97.3801 59.8126Z"
            fill="white" />
    </g>
    <mask id="mask1_62_2" style="mask-type:luminance" maskUnits="userSpaceOnUse" x="149" y="29" width="22" height="27">
        <path d="M149.333 29.8438H170.667V56H149.333V29.8438Z" fill="white" />
    </mask>
    <g mask="url(#mask1_62_2)">
        <path
            d="M150.297 52.698C150.417 51.323 150.734 50.0469 151.505 48.8751C152.214 47.7865 152.979 46.7605 153.849 45.7917C154.458 45.1198 155.109 44.4636 155.479 43.599C156.333 42.4896 157.047 41.2657 158.036 40.2605C158.422 39.8698 158.724 39.4376 158.99 38.9584C160.427 36.3698 162.359 34.2136 164.724 32.4428C165.109 32.1563 165.474 31.8282 165.865 31.5365C167.01 30.6771 167.495 30.4688 168.932 30.2136C169.089 30.1823 169.266 30.1615 169.411 30.2084C169.604 30.2709 169.844 30.349 169.958 30.5001C170.292 30.9271 170.505 31.4271 170.552 31.9792C170.604 32.6928 170.563 33.3959 170.292 34.0573C169.875 35.0521 169.479 36.0626 168.833 36.9428C167.88 38.2553 166.937 39.5678 165.99 40.8803C165.255 41.8855 164.505 42.8698 163.854 43.9323C163.286 44.849 162.599 45.6876 161.958 46.5573C161.578 47.0782 161.156 47.5782 160.807 48.1198C160.016 49.349 159.125 50.5053 158.188 51.6251C157.318 52.6615 156.266 53.5157 155.078 54.1771C154.516 54.4844 153.917 54.7344 153.333 55.0053C152.745 55.2761 152.172 55.1511 151.615 54.9063C151.219 54.7344 150.896 54.4323 150.63 54.0834C150.536 53.9636 150.453 53.8073 150.427 53.6563C150.359 53.3386 150.333 53.0157 150.297 52.698ZM169.719 32.2553C169.646 32.0261 169.557 31.7188 169.443 31.4167C169.38 31.2501 169.036 31.1303 168.885 31.2188C168.661 31.3542 168.417 31.4792 168.214 31.6511C167.766 32.0365 167.354 32.4688 166.891 32.8386C165.578 33.8959 164.531 35.2136 163.563 36.5626C162.526 38.0157 161.411 39.3959 160.281 40.7761C160.078 41.0261 159.88 41.2813 159.698 41.5469C158.719 42.974 157.776 44.4167 156.776 45.823C155.781 47.2292 154.776 48.6355 153.568 49.8751C153.266 50.1823 152.99 50.5209 152.734 50.8698C152.146 51.6563 152.255 52.6511 152.995 53.3438C153.156 53.4948 153.359 53.6146 153.578 53.5678C154.573 53.3386 155.547 53.0782 156.328 52.3282C156.87 51.8021 157.427 51.2969 157.88 50.6823C158.969 49.2084 160.068 47.7396 161.151 46.2605C161.786 45.3907 162.464 44.5417 163.016 43.6198C163.917 42.1355 165.021 40.8073 166.068 39.4428C167.286 37.8542 168.422 36.2188 169.245 34.3751C169.542 33.7188 169.646 33.0469 169.719 32.2553Z"
            fill="white" />
    </g>
    <path
        d="M139.26 73.6198C138.208 73.3958 137.312 73.2135 136.422 73.0104C136.052 72.9271 135.687 72.8229 135.338 72.6875C134.307 72.2812 133.698 71.5052 133.453 70.4323C133.359 70.0156 133.312 69.5833 133.255 69.151C133.234 68.9948 133.234 68.8281 133.25 68.6666C133.302 68.125 134.286 66.7344 134.812 66.4844C135.849 65.9896 136.927 65.6979 138.094 65.8541C139.484 66.0416 140.875 65.9791 142.271 65.7812C143.651 65.5833 145.047 65.4427 146.443 65.3541C148.531 65.2239 150.62 64.9948 152.719 64.9479C154.667 64.9062 156.573 65.1198 158.443 65.7291C159.651 66.1198 160.656 66.8229 161.604 67.625C161.766 67.7604 161.896 67.9479 161.995 68.1354C162.208 68.5364 162.266 68.9635 162.026 69.375C161.859 69.6458 161.677 69.9219 161.453 70.1458C160.677 70.9114 159.786 71.4844 158.75 71.8646C157.391 72.3698 155.989 72.7448 154.614 73.1979C154.057 73.3854 153.458 73.4583 152.87 73.526C150.521 73.7916 148.167 74.0469 145.812 74.276C145.229 74.3281 144.635 74.276 144.047 74.2708C142.364 74.2552 140.75 73.8021 139.26 73.6198ZM139.672 71.7031C140.578 71.8073 141.489 71.9791 142.401 72C144.021 72.0364 145.63 72.1614 147.245 72.2708C148.484 72.3594 149.719 72.3698 150.958 72.2187C151.818 72.1146 152.677 72.0677 153.536 72.0052C154.776 71.9219 155.995 71.7239 157.172 71.2969C157.932 71.0208 158.672 70.6979 159.448 70.4635C160.177 70.2448 160.734 69.6875 161.156 69.0312C161.25 68.8802 161.229 68.5469 161.104 68.4166C160.453 67.7552 159.719 67.1875 158.859 66.8594C157.495 66.3385 156.078 65.9219 154.62 65.8958C153.005 65.8698 151.385 65.8489 149.776 66.0208C148.812 66.125 147.844 66.2135 146.875 66.2448C145.417 66.2969 143.969 66.4791 142.536 66.6927C141.677 66.8177 140.818 66.9114 139.963 66.9114C139.047 66.9114 138.141 67.1354 137.224 67.0052C137.068 66.9844 136.906 67.0416 136.745 67.0677C136.104 67.1771 135.677 67.5573 135.432 68.1458C135.151 68.8125 135.375 69.4166 135.682 70.0052C135.724 70.0937 135.838 70.1562 135.927 70.2083C137.099 70.8906 138.302 71.4896 139.672 71.7031Z"
        fill="white" />
    <path
        d="M168.406 54.4896C167.068 54.474 165.859 54.1042 164.922 53.0886C164.443 52.5781 164.031 52.0104 163.703 51.3802C163.464 50.9219 163.417 50.4375 163.578 49.9636C163.839 49.1979 164.099 48.4219 164.438 47.6875C164.865 46.7761 165.526 46.0833 166.583 45.9063C166.849 45.8646 167.104 45.7656 167.365 45.7031C167.979 45.5521 168.557 45.6875 169.042 46.0781C170.104 46.9271 171.005 47.9375 171.537 49.2083C171.99 50.2969 172.021 51.4219 171.474 52.5052C171.333 52.7969 171.167 53.0729 170.99 53.3438C170.901 53.4792 170.792 53.6146 170.662 53.6979C169.969 54.1354 169.26 54.5156 168.406 54.4896ZM169.349 53.0469C169.396 53.0469 169.615 53.0469 169.818 53.0052C169.974 52.974 170.141 52.9063 170.25 52.8021C170.693 52.3854 170.99 51.8802 171.037 51.2656C171.052 51.0573 171.031 50.8125 170.927 50.6458C170.672 50.2292 170.464 49.8073 170.318 49.3386C170.021 48.3906 169.26 47.8802 168.432 47.4636C168.245 47.375 168.021 47.3386 167.813 47.3125C167.063 47.224 165.839 47.7604 165.833 48.974C165.828 50.1458 166.141 51.2136 167.083 52C167.412 52.2708 167.771 52.5052 168.12 52.7552C168.438 52.9844 168.797 53.0729 169.349 53.0469Z"
        fill="white" />
    <mask id="mask2_62_2" style="mask-type:luminance" maskUnits="userSpaceOnUse" x="148" y="29" width="10" height="10">
        <path d="M148 29.8438H157.333V38.6667H148V29.8438Z" fill="white" />
    </mask>
    <g mask="url(#mask2_62_2)">
        <path
            d="M152.943 29.9791C153.386 29.9114 153.797 30.0104 154.203 30.1718C154.604 30.3333 155 30.5 155.412 30.6145C155.906 30.7552 156.271 31.0364 156.557 31.4531C157.427 32.7031 157.448 34.2916 156.542 35.526C156.13 36.0885 155.646 36.5989 155.182 37.125C155.078 37.2447 154.953 37.3541 154.818 37.4375C153.776 38.0729 152.651 38.3697 151.432 38.2291C151.182 38.1979 150.927 38.0572 150.709 37.9062C150.156 37.5364 149.766 37 149.552 36.3854C148.959 34.6458 149.052 32.9843 150.214 31.4739C150.62 30.9531 151.12 30.5312 151.688 30.2447C152.068 30.0677 152.526 30.0625 152.943 29.9791ZM153.229 31.0156C151.792 31.0468 150.485 32.5572 150.656 33.8697C150.677 34.0312 150.719 34.1875 150.771 34.3385C151 35.0364 151.474 35.5052 152.094 35.8854C152.87 36.3541 153.589 36.3854 154.349 35.901C154.724 35.6562 155 35.3489 155.146 34.9322C155.25 34.625 155.354 34.3229 155.438 34.0104C155.594 33.4635 155.495 32.9427 155.245 32.4479C155.151 32.2604 155.005 32.0989 154.891 31.9166C154.469 31.2812 153.86 31.0156 153.229 31.0156Z"
            fill="white" />
    </g>
    <mask id="mask3_62_2" style="mask-type:luminance" maskUnits="userSpaceOnUse" x="176" y="34" width="31" height="32">
        <path d="M176 34.6666H206.661V65.3333H176V34.6666Z" fill="white" />
    </mask>
    <g mask="url(#mask3_62_2)">
        <path
            d="M189.625 45.2708C189.708 45.1666 189.838 45.0468 189.911 44.9062C190.083 44.5677 190.26 44.2343 190.375 43.8854C190.614 43.1718 191.015 42.526 191.489 41.9166C192.349 40.7968 193.14 39.6354 194.057 38.5468C194.62 37.875 195.281 37.2968 196.047 36.7812C196.672 36.3645 197.401 36.1302 198.198 36.0104C198.245 36 198.291 35.9948 198.344 35.9895C198.995 35.9739 199.833 36.0937 200.094 36.8854C200.198 37.1979 200.364 37.5052 200.416 37.8281C200.474 38.1562 200.568 38.4687 200.713 38.776C200.953 39.2864 200.995 39.8125 200.911 40.3437C200.776 41.151 200.599 41.9427 200.208 42.6927C199.599 43.8802 199.01 45.0729 198.411 46.2656C198.172 46.75 197.958 47.2448 197.818 47.7395C198.323 48.3698 198.318 48.3698 198.838 48.6354C199.224 48.8333 199.635 48.9895 199.916 49.3073C200.021 49.427 200.245 49.5156 200.432 49.5364C201.297 49.651 202.057 49.9531 202.76 50.375C202.88 50.4479 203.026 50.4948 203.161 50.5573C203.75 50.8073 204.265 51.125 204.672 51.5677C204.828 51.7291 205 51.8854 205.193 52.0156C205.515 52.2395 205.719 52.5104 205.844 52.8333C205.995 53.2239 206.187 53.6041 206.338 53.9948C206.661 54.802 206.432 55.526 205.791 56.1458C205.161 56.7656 204.349 57.0833 203.328 57.1041C202.526 57.1198 201.734 57.1458 200.953 56.9218C200.625 56.8281 200.291 56.7239 199.984 56.5885C199.041 56.1875 198.109 55.7812 197.177 55.3645C196.286 54.9635 195.39 54.5989 194.349 54.5989C194.161 54.5989 193.974 54.5052 193.797 54.4583C193.724 54.5468 193.64 54.6093 193.62 54.677C193.338 55.7083 192.802 56.6614 192.302 57.625C192.224 57.776 192.13 57.9166 192.057 58.0677C191.338 59.5416 190.234 60.8177 189.099 62.0833C188.693 62.5416 188.245 62.9687 187.859 63.4375C187.312 64.1093 186.495 64.2343 185.625 64.052C184.458 63.802 183.338 63.4166 182.479 62.651C182.281 62.4739 182.031 62.3229 181.791 62.177C181.604 62.0677 181.536 61.9323 181.531 61.7656C181.526 61.6406 181.573 61.5 181.51 61.401C181.172 60.8854 181.255 60.375 181.427 59.8593C181.5 59.625 181.583 59.3854 181.609 59.1458C181.729 58.0052 182.193 56.9323 182.578 55.8541C182.745 55.3906 183.005 54.9531 183.25 54.5104C183.739 53.6354 184.245 52.7604 184.739 51.8854C184.781 51.8125 184.812 51.7343 184.849 51.6614C184.901 51.5468 184.797 51.2916 184.661 51.2239C183.312 50.5781 182.057 49.8073 180.765 49.0833C179.495 48.375 178.411 47.5312 177.651 46.427C177.505 46.2083 177.338 46 177.166 45.7968C176.823 45.401 176.698 45 176.937 44.5312C177.026 44.3645 176.958 44.1354 176.932 43.9375C176.896 43.6562 177.062 43.4739 177.291 43.3073C177.64 43.0573 178.052 42.9218 178.515 42.9531C178.963 42.9791 179.416 43.026 179.849 43.1198C182.234 43.6302 184.635 44.0729 187.041 44.4948C187.687 44.6093 188.297 44.7916 188.88 45.0573C189.094 45.1562 189.297 45.2864 189.625 45.2708ZM182.88 61.7812C183.364 62.2031 183.75 62.401 184.229 62.3802C184.89 62.3593 185.5 62.2239 186 61.8489C186.51 61.4687 186.979 61.0625 187.297 60.5468C187.604 60.0468 187.927 59.552 188.182 59.026C188.505 58.3489 188.906 57.7031 189.312 57.0625C189.515 56.7395 189.703 56.4166 189.896 56.0885C190.364 55.2916 190.713 54.4479 191.125 53.6302C191.422 53.0364 191.781 52.4635 192.125 51.8854C192.219 51.7239 192.557 51.625 192.771 51.6875C192.864 51.7135 192.958 51.7448 193.052 51.776C194.713 52.3698 196.375 52.9687 198.036 53.5573C199.245 53.9791 200.453 54.3958 201.713 54.6927C202.515 54.8854 203.291 54.8958 204.036 54.6093C204.422 54.4583 204.63 54.2083 204.666 53.8489C204.708 53.3489 204.521 52.8802 204.364 52.4062C204.177 51.8593 203.776 51.4687 203.151 51.2083C202.614 50.9843 202.104 50.7135 201.568 50.4843C201.349 50.3854 201.109 50.3073 200.87 50.2552C198.969 49.8541 197.146 49.2604 195.37 48.5677C195.036 48.4375 194.922 48.2291 195.068 47.9791C195.39 47.4375 195.739 46.9062 196.031 46.3541C196.458 45.5364 196.911 44.7343 197.385 43.9427C197.729 43.3645 197.995 42.7552 198.255 42.1458C198.562 41.4218 198.849 40.6927 199.104 39.9583C199.265 39.4948 199.37 39.0156 199.479 38.5364C199.594 38.0156 199.521 37.4843 199.401 36.9635C199.349 36.7239 199.036 36.5468 198.734 36.5573C197.963 36.5833 197.25 36.7552 196.666 37.1458C195.828 37.7083 195.036 38.3073 194.474 39.0833C193.755 40.0833 193.036 41.0885 192.276 42.0729C191.802 42.6875 191.422 43.3385 191.135 44.026C190.943 44.4843 190.729 44.9375 190.515 45.3854C190.411 45.6093 190.297 45.8333 190.177 46.052C190.114 46.1718 189.802 46.2656 189.656 46.2031C189.302 46.0468 188.927 45.9114 188.614 45.7083C188.198 45.4479 187.745 45.2916 187.255 45.1927C185.937 44.9375 184.62 44.677 183.297 44.4323C182.224 44.2395 181.14 44.052 180.083 43.7864C179.75 43.7031 179.401 43.6354 179.057 43.5937C178.812 43.5677 178.562 43.5885 178.318 43.6145C178.031 43.6406 177.812 43.9114 177.844 44.1458C177.906 44.6198 178.156 45.0208 178.609 45.3125C179.838 46.1041 181.021 46.9531 182.427 47.5468C182.739 47.677 183.036 47.8333 183.338 47.9843C183.854 48.2395 184.37 48.5 184.89 48.7552C185.286 48.9479 185.698 49.0885 186.166 49.0833C186.318 49.0781 186.469 49.1041 186.614 49.1302C186.828 49.1666 186.969 49.276 187.041 49.4427C187.13 49.6406 187.182 49.8437 187.047 50.0312C186.64 50.6302 186.224 51.2135 185.812 51.8125C185.573 52.1614 185.328 52.5104 185.114 52.8698C184.729 53.5208 184.385 54.1927 183.995 54.8385C183.578 55.5312 183.25 56.2448 183.031 56.9948C182.745 58.0156 182.489 59.0416 182.182 60.0625C182.041 60.5312 182.172 60.9479 182.474 61.3437C182.625 61.5573 182.838 61.7395 182.88 61.7812Z"
            fill="white" />
    </g>
    <path
        d="M297.012 94.6039V93.1873C297.012 92.1352 297.21 91.3904 297.617 90.9581C298.018 90.5154 298.523 90.2914 299.137 90.2914C299.788 90.2914 300.314 90.5154 300.721 90.9581C301.137 91.3904 301.346 92.1352 301.346 93.1873V102.875C301.304 103.932 301.085 104.682 300.7 105.125C300.309 105.557 299.788 105.771 299.137 105.771C298.564 105.771 298.085 105.578 297.7 105.187C297.309 104.802 297.08 104.146 297.012 103.229C296.804 100.812 295.21 98.5206 292.242 96.3539C289.268 94.1768 285.268 93.0831 280.242 93.0831C273.877 93.0831 269.054 95.0727 265.762 99.0414C262.471 103.015 260.825 107.573 260.825 112.708C260.825 118.25 262.637 122.823 266.262 126.416C269.898 130.015 274.606 131.812 280.387 131.812C283.721 131.812 287.106 131.203 290.554 129.979C294.012 128.76 297.127 126.786 299.908 124.062C300.617 123.385 301.247 123.041 301.804 123.041C302.372 123.041 302.851 123.245 303.242 123.646C303.627 124.036 303.825 124.515 303.825 125.083C303.825 126.557 302.106 128.411 298.679 130.646C293.148 134.286 286.981 136.104 280.179 136.104C273.288 136.104 267.622 133.906 263.179 129.5C258.747 125.099 256.533 119.515 256.533 112.75C256.533 105.864 258.794 100.14 263.325 95.5831C267.867 91.031 273.585 88.7498 280.492 88.7498C287.044 88.7498 292.554 90.7029 297.012 94.6039Z"
        fill="white" />
    <path
        d="M344.579 134.416V128.25C338.355 133.489 331.714 136.104 324.662 136.104C319.521 136.104 315.506 134.802 312.62 132.208C309.73 129.599 308.287 126.411 308.287 122.646C308.287 118.495 310.188 114.875 313.995 111.791C317.798 108.698 323.355 107.146 330.662 107.146C332.631 107.146 334.771 107.281 337.079 107.541C339.396 107.791 341.896 108.187 344.579 108.729V101.791C344.579 99.4581 343.485 97.4268 341.308 95.6873C339.141 93.9529 335.881 93.0831 331.537 93.0831C328.204 93.0831 323.527 94.0518 317.516 95.9789C316.433 96.3279 315.735 96.4998 315.433 96.4998C314.891 96.4998 314.417 96.3018 314.016 95.8956C313.626 95.4789 313.433 94.9685 313.433 94.3539C313.433 93.7862 313.605 93.3279 313.954 92.9789C314.423 92.4685 316.339 91.7706 319.704 90.8956C325.006 89.4685 329.021 88.7498 331.745 88.7498C337.146 88.7498 341.355 90.0831 344.37 92.7498C347.396 95.4164 348.912 98.432 348.912 101.791V130.146H354.62C355.673 130.146 356.417 130.344 356.85 130.729C357.292 131.12 357.516 131.635 357.516 132.271C357.516 132.885 357.292 133.396 356.85 133.812C356.417 134.219 355.673 134.416 354.62 134.416H344.579ZM344.579 113.104C342.579 112.536 340.454 112.12 338.204 111.854C335.964 111.578 333.605 111.437 331.12 111.437C324.912 111.437 320.058 112.781 316.558 115.458C313.902 117.458 312.579 119.854 312.579 122.646C312.579 125.229 313.584 127.406 315.6 129.166C317.626 130.932 320.579 131.812 324.454 131.812C328.146 131.812 331.584 131.078 334.766 129.604C337.943 128.12 341.214 125.765 344.579 122.541V113.104Z"
        fill="white" />
    <path
        d="M387.562 70.4581V130.146H404.374C405.426 130.146 406.176 130.344 406.624 130.729C407.067 131.12 407.291 131.635 407.291 132.271C407.291 132.885 407.067 133.396 406.624 133.812C406.176 134.219 405.426 134.416 404.374 134.416H366.458C365.442 134.416 364.713 134.219 364.27 133.812C363.822 133.396 363.604 132.885 363.604 132.271C363.604 131.635 363.822 131.12 364.27 130.729C364.713 130.344 365.442 130.146 366.458 130.146H383.291V74.7915H370.958C369.926 74.7915 369.187 74.5935 368.729 74.1873C368.27 73.7706 368.041 73.2446 368.041 72.604C368.041 71.9946 368.26 71.4894 368.708 71.0831C369.15 70.6665 369.9 70.4581 370.958 70.4581H387.562Z"
        fill="white" />
    <path
        d="M456.4 94.6039V93.1873C456.4 92.1352 456.597 91.3904 457.004 90.9581C457.405 90.5154 457.91 90.2914 458.525 90.2914C459.176 90.2914 459.702 90.5154 460.108 90.9581C460.525 91.3904 460.733 92.1352 460.733 93.1873V102.875C460.691 103.932 460.472 104.682 460.087 105.125C459.696 105.557 459.176 105.771 458.525 105.771C457.952 105.771 457.472 105.578 457.087 105.187C456.696 104.802 456.467 104.146 456.4 103.229C456.191 100.812 454.597 98.5206 451.629 96.3539C448.655 94.1768 444.655 93.0831 439.629 93.0831C433.264 93.0831 428.441 95.0727 425.15 99.0414C421.858 103.015 420.212 107.573 420.212 112.708C420.212 118.25 422.025 122.823 425.65 126.416C429.285 130.015 433.993 131.812 439.775 131.812C443.108 131.812 446.493 131.203 449.941 129.979C453.4 128.76 456.514 126.786 459.295 124.062C460.004 123.385 460.634 123.041 461.191 123.041C461.759 123.041 462.238 123.245 462.629 123.646C463.014 124.036 463.212 124.515 463.212 125.083C463.212 126.557 461.493 128.411 458.066 130.646C452.535 134.286 446.368 136.104 439.566 136.104C432.676 136.104 427.009 133.906 422.566 129.5C418.134 125.099 415.92 119.515 415.92 112.75C415.92 105.864 418.181 100.14 422.712 95.5831C427.254 91.031 432.972 88.7498 439.879 88.7498C446.431 88.7498 451.941 90.7029 456.4 94.6039Z"
        fill="white" />
</svg>